<?xml version="1.0" encoding="UTF-8"?>
<svg id="Layer_1" data-name="Layer 1" xmlns="http://www.w3.org/2000/svg" viewBox="0 0 50 50">
  <defs>
    <style>
      .cls-1 {
        fill: #fff;
      }

      .cls-1, .cls-2 {
        stroke-width: 0px;
      }

      .cls-2 {
        fill: #ef973b;
      }
    </style>
  </defs>
  <g>
    <circle class="cls-2" cx="25" cy="25" r="24.5"/>
    <path class="cls-1" d="M25,1c13.23,0,24,10.77,24,24s-10.77,24-24,24S1,38.23,1,25,11.77,1,25,1M25,0C11.19,0,0,11.19,0,25s11.19,25,25,25,25-11.19,25-25S38.81,0,25,0h0Z"/>
  </g>
  <polygon class="cls-1" points="34.46 13.89 31.84 11.28 30.33 12.78 32.95 15.4 34.46 13.89"/>
  <polygon class="cls-1" points="37.81 21.73 27.01 10.92 26.96 10.87 21.38 9.44 19.71 11.1 34.08 25.47 37.81 21.73"/>
  <rect class="cls-1" x="9.78" y="24.34" width="19.51" height="3.71" transform="translate(-12.8 21.49) rotate(-45)"/>
  <polygon class="cls-1" points="33.54 41.44 38.04 39.6 38.76 36.02 33.55 37.39 33.54 41.44"/>
  <polygon class="cls-1" points="27.19 38.51 32.5 41.35 32.52 37.31 26.85 34.44 27.19 38.51"/>
  <polygon class="cls-1" points="38.76 31.17 32.15 30.3 27.29 33.49 33.09 36.45 38.9 34.93 38.76 31.17"/>
</svg>