<?xml version="1.0" encoding="UTF-8"?>
<svg id="Layer_1" data-name="Layer 1" xmlns="http://www.w3.org/2000/svg" viewBox="0 0 50 50">
  <defs>
    <style>
      .cls-1 {
        fill: #fff;
      }

      .cls-1, .cls-2 {
        stroke-width: 0px;
      }

      .cls-2 {
        fill: #ef973b;
      }
    </style>
  </defs>
  <g>
    <circle class="cls-2" cx="25" cy="25" r="24.5"/>
    <path class="cls-1" d="M25,1c13.23,0,24,10.77,24,24s-10.77,24-24,24S1,38.23,1,25,11.77,1,25,1M25,0C11.19,0,0,11.19,0,25s11.19,25,25,25,25-11.19,25-25S38.81,0,25,0h0Z"/>
  </g>
  <g>
    <path class="cls-1" d="M11.91,39c-.12,0-.23-.03-.33-.1-.17-.11-.26-.3-.26-.49v-22.38c0-.24.14-.46.37-.55l8.66-3.61c.15-.06.31-.06.46,0l8.44,3.51,8.44-3.51c.18-.08.39-.06.56.05.17.11.26.3.26.49v22.38c0,.24-.14.46-.37.55l-8.66,3.61c-.15.06-.31.06-.46,0l-8.44-3.51-8.44,3.51c-.07.03-.15.05-.23.05ZM20.57,34.2c.08,0,.16.02.23.05l8.44,3.51,8.07-3.36V13.3l-7.84,3.27c-.15.06-.31.06-.46,0l-8.44-3.51-8.07,3.36v21.09l7.84-3.27c.07-.03.15-.05.23-.05Z"/>
    <path class="cls-1" d="M20.57,35.39c-.33,0-.59-.27-.59-.59V12.41c0-.33.27-.59.59-.59s.59.27.59.59v22.38c0,.33-.27.59-.59.59Z"/>
    <path class="cls-1" d="M29.23,39c-.33,0-.59-.27-.59-.59v-22.38c0-.33.27-.59.59-.59s.59.27.59.59v22.38c0,.33-.27.59-.59.59Z"/>
  </g>
</svg>