<?xml version="1.0" encoding="UTF-8"?>
<svg id="Layer_1" data-name="Layer 1" xmlns="http://www.w3.org/2000/svg" viewBox="0 0 50 50">
  <defs>
    <style>
      .cls-1, .cls-2 {
        fill: #fff;
      }

      .cls-1, .cls-2, .cls-3 {
        stroke-width: 0px;
      }

      .cls-2 {
        fill-rule: evenodd;
      }

      .cls-3 {
        fill: #ef973b;
      }
    </style>
  </defs>
  <g>
    <circle class="cls-3" cx="25" cy="25" r="24.5"/>
    <path class="cls-1" d="M25,1c13.23,0,24,10.77,24,24s-10.77,24-24,24S1,38.23,1,25,11.77,1,25,1M25,0C11.19,0,0,11.19,0,25s11.19,25,25,25,25-11.19,25-25S38.81,0,25,0h0Z"/>
  </g>
  <path class="cls-2" d="M12.91,19.68c0,2.03,1.64,3.67,3.67,3.67s3.67-1.64,3.67-3.67-1.64-3.67-3.67-3.67-3.67,1.64-3.67,3.67ZM32.53,23.35c2.03,0,3.67-1.64,3.67-3.67s-1.64-3.67-3.67-3.67-3.67,1.64-3.67,3.67,1.64,3.67,3.67,3.67ZM27.59,26.99c.73-1.32,2.15-2.2,3.77-2.2h2.33c2.38,0,4.31,1.92,4.31,4.3v3.03h-7.38v-1.02c0-1.93-1.27-3.57-3.03-4.11ZM28.23,21.95c0,2.03-1.64,3.67-3.67,3.67s-3.67-1.64-3.67-3.67,1.64-3.67,3.67-3.67,3.67,1.64,3.67,3.67ZM19.08,31.36c0-2.38,1.92-4.3,4.31-4.3h2.33c2.38,0,4.31,1.92,4.31,4.3v3.03h-10.94s0-3.03,0-3.03ZM21.52,26.99c-.73-1.32-2.15-2.2-3.77-2.2h-2.33c-2.38,0-4.31,1.92-4.31,4.3v3.03h7.38v-1.02c0-1.93,1.27-3.57,3.03-4.11Z"/>
</svg>