<?xml version="1.0" encoding="UTF-8"?>
<svg id="Layer_1" data-name="Layer 1" xmlns="http://www.w3.org/2000/svg" viewBox="0 0 50 50">
  <defs>
    <style>
      .cls-1 {
        fill: #fff;
      }

      .cls-1, .cls-2 {
        stroke-width: 0px;
      }

      .cls-2 {
        fill: #ef973b;
      }
    </style>
  </defs>
  <g>
    <circle class="cls-2" cx="25" cy="25" r="24.5"/>
    <path class="cls-1" d="M25,1c13.23,0,24,10.77,24,24s-10.77,24-24,24S1,38.23,1,25,11.77,1,25,1M25,0C11.19,0,0,11.19,0,25s11.19,25,25,25,25-11.19,25-25S38.81,0,25,0h0Z"/>
  </g>
  <path class="cls-1" d="M24.05,31.02l-2.3,1.5c-.06.03-.09.1-.09.16v1.02c0,.06.03.11.08.15.03.02.07.03.11.03.02,0,.03,0,.05,0l2.96-.81c.31.39.69.38,1.01,0l2.95.81c.06.02.12,0,.17-.03.05-.04.07-.09.07-.15v-1.02c0-.06-.03-.12-.08-.16l-2.3-1.5c.24-.97.46-2.23.65-3.65l10.45,1.58c.05.01.11,0,.15-.04.04-.03.06-.08.06-.14v-1.18c0-.07-.04-.13-.1-.17l-10.13-5.18c.03-.71.05-1.39.05-2.04,0-5.31-2.28-6.16-2.38-6.19-.04-.01-.08-.01-.12,0-.1.03-2.38.88-2.38,6.19,0,.65.01,1.34.04,2.04l-10.13,5.18c-.06.03-.1.1-.1.17v1.18c0,.06.03.11.06.14.05.04.1.06.16.05l10.45-1.58c.18,1.43.41,2.68.65,3.65Z"/>
</svg>