<?xml version="1.0" encoding="UTF-8"?>
<svg id="Layer_1" data-name="Layer 1" xmlns="http://www.w3.org/2000/svg" viewBox="0 0 50 50">
  <defs>
    <style>
      .cls-1 {
        fill: #fff;
      }

      .cls-1, .cls-2 {
        stroke-width: 0px;
      }

      .cls-2 {
        fill: #ef973b;
      }
    </style>
  </defs>
  <g>
    <circle class="cls-2" cx="25" cy="25" r="24.5"/>
    <path class="cls-1" d="M25,1c13.23,0,24,10.77,24,24s-10.77,24-24,24S1,38.23,1,25,11.77,1,25,1M25,0C11.19,0,0,11.19,0,25s11.19,25,25,25,25-11.19,25-25S38.81,0,25,0h0Z"/>
  </g>
  <path class="cls-1" d="M24.9,12.13c-.06-.13-.22-.19-.34-.19s-.28.06-.34.19c-.34.56-8.1,13.48-8.1,17.98s3.78,8.41,8.44,8.41,8.44-3.78,8.44-8.41-7.79-17.42-8.1-17.98ZM21.62,24.27c-.03.06-3.35,5.41-.81,9.2.19.28.13.66-.16.84-.09.06-.22.09-.34.09-.19,0-.38-.09-.5-.25-3-4.44.63-10.29.78-10.54.19-.28.56-.38.84-.19.28.22.34.56.19.84Z"/>
</svg>